# xmcd
#
# Track frame offsets:
#	150
#	19652
#	39145
#	58827
#	69315
#	83067
#	100931
#	112576
#	126557
#	148206
#	166172
#	184451
#	204357
#
# Disc length: 2975 seconds
#
# Revision: 1
# Processed by: cddbd v1.5.1PL2 Copyright (c) Steve Scherf et al.
# Submitted via: EasyCDDAExtractor 5.0.6
#
DISCID=ad0b9d0d
DTITLE=Various Artist - 人間定格
DYEAR=2003
DGENRE=Country
TTITLE0=杜雯惠, Joey Tang - 打得火熱
TTITLE1=杜雯惠, 羅敏莊 - 風爭與風
TTITLE2=杜雯惠, 胡諾言 - 高妹前後傳
TTITLE3=杜雯惠 - 浪子心聲
TTITLE4=杜雯惠 - 幾分鐘的約會
TTITLE5=杜雯惠 - 假如
TTITLE6=杜雯惠 - 今晚夜
TTITLE7=杜雯惠 - 不可以逃避
TTITLE8=杜雯惠 - 傷信
TTITLE9=杜雯惠 - 願
TTITLE10=杜雯惠 - 唱一首好歌
TTITLE11=杜雯惠 - 有沒有
TTITLE12=杜雯惠, 羅敏莊, 胡諾言, 跳格樂隊 - You've got a Friend
EXTD=
EXTT0=
EXTT1=
EXTT2=
EXTT3=
EXTT4=
EXTT5=
EXTT6=
EXTT7=
EXTT8=
EXTT9=
EXTT10=
EXTT11=
EXTT12=
PLAYORDER=
